# xmcd
#
# Track frame offsets: 
#        150
#        18555
#        34240
#        48110
#        76712
#        89975
#        110065
#        127465
#        139032
#        153002
#        168307
#
# Disc length: 2427 seconds
#
# Revision: 7
# Processed by: cddbd v1.5.2PL0 Copyright (c) Steve Scherf et al.
# Submitted via: ExactAudioCopy v1.0b3
#
DISCID=9009790b
DTITLE=l'Orchestre de Contrebasses - Transes Formations
DYEAR=1999
DGENRE=Instrumental
TTITLE0=Father moqueur
TTITLE1=Le 12 juillet
TTITLE2=Ego
TTITLE3=Les dejantes
TTITLE4=Fonque
TTITLE5=Les fous de Bassan
TTITLE6=Messes basses／Matines
TTITLE7=Messes basses／Sextes
TTITLE8=Messes basses／Nones
TTITLE9=Messes basses／Vepres
TTITLE10=Messes basses／Complies
EXTD=YEAR: 1999
EXTT0=
EXTT1=
EXTT2=
EXTT3=
EXTT4=
EXTT5=
EXTT6=
EXTT7=
EXTT8=
EXTT9=
EXTT10=
PLAYORDER=
